# xmcd CD database file
#
# Track frame offsets:
#	150
#	6479
#	24784
#	41999
#	61353
#	74029
#	101934
#	117387
#	133628
#	148825
#	162479
#	180191
#
# Disc length: 2914 seconds
#
# Revision: 0
# Processed by: cddbd v1.5.2PL0 Copyright (c) Steve Scherf et al.
# Submitted via: CDex 1.70beta2
#
DISCID=b30b600c
DTITLE=Joachim Kühn New Trio - Beauty and Truth
DYEAR=2015
DGENRE=Jazz
TTITLE0=Beauty and Truth
TTITLE1=The End
TTITLE2=Because of Mouloud
TTITLE3=Sleep on It
TTITLE4=Intim
TTITLE5=Transmitting
TTITLE6=Summertime
TTITLE7=Riders on the Storm
TTITLE8=Machineria
TTITLE9=Sleep Save and Warm
TTITLE10=Kattorna
TTITLE11=Blues for Pablo
EXTD=YEAR: 2015
EXTT0=
EXTT1=
EXTT2=
EXTT3=
EXTT4=
EXTT5=
EXTT6=
EXTT7=
EXTT8=
EXTT9=
EXTT10=
EXTT11=
PLAYORDER=
